HIERARCHY
ROOT Hips
{
	OFFSET 0.000000 87.230942 0.000000
	CHANNELS 6 Xposition Yposition Zposition Xrotation Yrotation Zrotation
	JOINT Pelvis
	{
		OFFSET 0.000000 0.000000 0.000000
		CHANNELS 3 Xrotation Yrotation Zrotation
		JOINT LeftUpLeg
		{
			OFFSET 12.017000 -9.376404 -2.439400
			CHANNELS 3 Xrotation Yrotation Zrotation
			JOINT LeftLeg
			{
				OFFSET -0.007312 -32.846973 2.110600
				CHANNELS 3 Xrotation Yrotation Zrotation
				JOINT LeftFoot
				{
					OFFSET 0.007312 -32.065170 -0.570400
					CHANNELS 3 Xrotation Yrotation Zrotation
					JOINT LeftToeBase
					{
						OFFSET 0.728300 -11.045900 13.180700
						CHANNELS 3 Xrotation Yrotation Zrotation
						End Site
						{
							OFFSET 0.000000 17.212589 0.000000
						}
					}
				}
				JOINT LeftPantLeg
				{
					OFFSET 0.002788 -16.709013 -3.143600
					CHANNELS 3 Xrotation Yrotation Zrotation
					End Site
					{
						OFFSET -0.605125 24.528742 0.000000
					}
				}
			}
			JOINT Left_Butt
			{
				OFFSET -6.630234 1.326584 -3.183700
				CHANNELS 3 Xrotation Yrotation Zrotation
				End Site
				{
					OFFSET -0.498041 20.188049 0.000000
				}
			}
		}
		JOINT RightUpLeg
		{
			OFFSET -11.717000 -9.376404 -2.439400
			CHANNELS 3 Xrotation Yrotation Zrotation
			JOINT RightLeg
			{
				OFFSET -0.003241 -32.846912 2.110600
				CHANNELS 3 Xrotation Yrotation Zrotation
				JOINT RightFoot
				{
					OFFSET 0.003241 -32.065136 -0.570500
					CHANNELS 3 Xrotation Yrotation Zrotation
					JOINT RightToeBase
					{
						OFFSET -0.728300 -11.045901 13.180700
						CHANNELS 3 Xrotation Yrotation Zrotation
						End Site
						{
							OFFSET 0.000000 17.212593 0.000000
						}
					}
				}
				JOINT RightPantLeg
				{
					OFFSET 0.008142 -16.708982 -3.143700
					CHANNELS 3 Xrotation Yrotation Zrotation
					End Site
					{
						OFFSET 0.605088 24.528715 0.000000
					}
				}
			}
			JOINT Right_Butt
			{
				OFFSET 6.630732 1.326584 -3.183700
				CHANNELS 3 Xrotation Yrotation Zrotation
				End Site
				{
					OFFSET 0.498015 20.188240 0.000000
				}
			}
		}
	}
	JOINT Spine
	{
		OFFSET -0.062400 7.848404 3.918300
		CHANNELS 3 Xrotation Yrotation Zrotation
		JOINT Spine1
		{
			OFFSET -0.072800 11.422302 0.713400
			CHANNELS 3 Xrotation Yrotation Zrotation
			JOINT Spine2
			{
				OFFSET -0.083200 13.054001 -1.931600
				CHANNELS 3 Xrotation Yrotation Zrotation
				JOINT Neck
				{
					OFFSET -0.092200 14.121796 -5.138800
					CHANNELS 3 Xrotation Yrotation Zrotation
					JOINT Head
					{
						OFFSET 0.000200 10.447403 -0.842000
						CHANNELS 3 Xrotation Yrotation Zrotation
						JOINT Visor
						{
							OFFSET 0.457100 25.671204 16.550400
							CHANNELS 3 Xrotation Yrotation Zrotation
							End Site
							{
								OFFSET 0.000000 26.061493 0.000000
							}
						}
						JOINT HairMidA
						{
							OFFSET 0.459400 31.585403 8.437400
							CHANNELS 3 Xrotation Yrotation Zrotation
							End Site
							{
								OFFSET 0.000000 26.061493 0.000000
							}
						}
						JOINT HairMidB
						{
							OFFSET 0.464000 33.309204 -8.389700
							CHANNELS 3 Xrotation Yrotation Zrotation
							End Site
							{
								OFFSET 0.000000 26.061493 0.000000
							}
						}
						JOINT HairMidC
						{
							OFFSET 0.466600 27.991196 -17.375099
							CHANNELS 3 Xrotation Yrotation Zrotation
							End Site
							{
								OFFSET 0.000000 26.061493 0.000000
							}
						}
						JOINT HairMidD
						{
							OFFSET 0.467700 17.888092 -21.169500
							CHANNELS 3 Xrotation Yrotation Zrotation
							End Site
							{
								OFFSET 0.000000 26.061493 0.000000
							}
						}
						JOINT HairMidE
						{
							OFFSET 5.325700 3.514603 -14.369699
							CHANNELS 3 Xrotation Yrotation Zrotation
							End Site
							{
								OFFSET 0.000000 26.061493 0.000000
							}
						}
						JOINT HairMidF
						{
							OFFSET -4.394100 3.514603 -14.372400
							CHANNELS 3 Xrotation Yrotation Zrotation
							End Site
							{
								OFFSET 0.000000 26.061493 0.000000
							}
						}
						JOINT HairLeftA
						{
							OFFSET 15.319900 25.746506 2.623300
							CHANNELS 3 Xrotation Yrotation Zrotation
							End Site
							{
								OFFSET 0.000000 26.061493 0.000000
							}
						}
						JOINT HairLeftB
						{
							OFFSET 12.619500 29.289398 -8.731499
							CHANNELS 3 Xrotation Yrotation Zrotation
							End Site
							{
								OFFSET 0.000000 26.061493 0.000000
							}
						}
						JOINT HairLeftC
						{
							OFFSET 15.714800 15.959900 2.909800
							CHANNELS 3 Xrotation Yrotation Zrotation
							End Site
							{
								OFFSET 0.000000 26.061493 0.000000
							}
						}
						JOINT HairLeftD
						{
							OFFSET 16.101700 18.437408 -7.553200
							CHANNELS 3 Xrotation Yrotation Zrotation
							End Site
							{
								OFFSET 0.000000 26.061493 0.000000
							}
						}
						JOINT HairLeftE
						{
							OFFSET 9.731900 17.915009 -18.316799
							CHANNELS 3 Xrotation Yrotation Zrotation
							End Site
							{
								OFFSET 0.000000 26.061493 0.000000
							}
						}
						JOINT HairLeftF
						{
							OFFSET 11.204300 4.953598 -9.668100
							CHANNELS 3 Xrotation Yrotation Zrotation
							End Site
							{
								OFFSET 0.000000 26.061493 0.000000
							}
						}
						JOINT HairRightA
						{
							OFFSET -14.397900 25.746307 2.615100
							CHANNELS 3 Xrotation Yrotation Zrotation
							End Site
							{
								OFFSET 0.000000 26.061493 0.000000
							}
						}
						JOINT HairRightB
						{
							OFFSET -11.691200 29.289200 -8.738199
							CHANNELS 3 Xrotation Yrotation Zrotation
							End Site
							{
								OFFSET 0.000000 26.061493 0.000000
							}
						}
						JOINT HairRightC
						{
							OFFSET -14.792900 15.959702 2.901400
							CHANNELS 3 Xrotation Yrotation Zrotation
							End Site
							{
								OFFSET 0.000000 26.061493 0.000000
							}
						}
						JOINT HairRightD
						{
							OFFSET -15.174000 18.437195 -7.561900
							CHANNELS 3 Xrotation Yrotation Zrotation
							End Site
							{
								OFFSET 0.000000 26.061493 0.000000
							}
						}
						JOINT HairRightE
						{
							OFFSET -8.798200 17.914902 -18.322001
							CHANNELS 3 Xrotation Yrotation Zrotation
							End Site
							{
								OFFSET 0.000000 26.061493 0.000000
							}
						}
						JOINT HairRightF
						{
							OFFSET -10.275200 4.953506 -9.674099
							CHANNELS 3 Xrotation Yrotation Zrotation
							End Site
							{
								OFFSET 0.000000 26.061493 0.000000
							}
						}
					}
				}
				JOINT LeftShoulder
				{
					OFFSET 5.133500 7.341202 -1.867600
					CHANNELS 3 Xrotation Yrotation Zrotation
					JOINT LeftArm
					{
						OFFSET 8.072663 0.936867 -2.176600
						CHANNELS 3 Xrotation Yrotation Zrotation
						JOINT LeftForeArm
						{
							OFFSET 31.271999 0.000000 0.000000
							CHANNELS 3 Xrotation Yrotation Zrotation
							JOINT LeftHand
							{
								OFFSET 31.771030 0.000000 0.000000
								CHANNELS 3 Xrotation Yrotation Zrotation
								JOINT LeftHandThumb1
								{
									OFFSET 2.886520 -2.557846 4.416640
									CHANNELS 3 Xrotation Yrotation Zrotation
									JOINT LeftHandThumb2
									{
										OFFSET 2.371025 -1.368912 1.368911
										CHANNELS 3 Xrotation Yrotation Zrotation
										JOINT LeftHandThumb3
										{
											OFFSET 2.243378 -1.295212 1.295213
											CHANNELS 3 Xrotation Yrotation Zrotation
											End Site
											{
												OFFSET -0.332611 2.876945 0.020015
											}
										}
									}
								}
								JOINT LeftHandIndex1
								{
									OFFSET 8.568985 -0.641945 3.119977
									CHANNELS 3 Xrotation Yrotation Zrotation
									JOINT LeftHandIndex2
									{
										OFFSET 3.348503 0.000000 0.000000
										CHANNELS 3 Xrotation Yrotation Zrotation
										JOINT LeftHandIndex3
										{
											OFFSET 3.314552 0.000000 0.000000
											CHANNELS 3 Xrotation Yrotation Zrotation
											End Site
											{
												OFFSET -1.032898 3.075485 0.678796
											}
										}
									}
								}
								JOINT LeftHandMiddle1
								{
									OFFSET 8.124603 0.000000 0.000000
									CHANNELS 3 Xrotation Yrotation Zrotation
									JOINT LeftHandMiddle2
									{
										OFFSET 4.166275 0.000000 0.000000
										CHANNELS 3 Xrotation Yrotation Zrotation
										JOINT LeftHandMiddle3
										{
											OFFSET 3.018135 0.000000 0.000000
											CHANNELS 3 Xrotation Yrotation Zrotation
											End Site
											{
												OFFSET -1.032700 2.767982 0.617226
											}
										}
									}
								}
								JOINT LeftHandRing1
								{
									OFFSET 8.571686 -0.031357 -2.884048
									CHANNELS 3 Xrotation Yrotation Zrotation
									JOINT LeftHandRing2
									{
										OFFSET 3.671181 0.000000 0.000000
										CHANNELS 3 Xrotation Yrotation Zrotation
										JOINT LeftHandRing3
										{
											OFFSET 2.728851 0.000000 0.000000
											CHANNELS 3 Xrotation Yrotation Zrotation
											End Site
											{
												OFFSET -0.815796 2.539223 0.577389
											}
										}
									}
								}
								JOINT LeftHandPinky1
								{
									OFFSET 7.854515 -0.675232 -5.213020
									CHANNELS 3 Xrotation Yrotation Zrotation
									JOINT LeftHandPinky2
									{
										OFFSET 3.068596 0.000000 0.000000
										CHANNELS 3 Xrotation Yrotation Zrotation
										JOINT LeftHandPinky3
										{
											OFFSET 2.396042 0.000000 0.000000
											CHANNELS 3 Xrotation Yrotation Zrotation
											End Site
											{
												OFFSET -0.524597 2.267998 0.567429
											}
										}
									}
								}
							}
							JOINT LeftSleeve
							{
								OFFSET 19.684509 -0.200119 0.476146
								CHANNELS 3 Xrotation Yrotation Zrotation
								End Site
								{
									OFFSET -0.031017 25.731133 -0.002868
								}
							}
						}
					}
				}
				JOINT RightShoulder
				{
					OFFSET -4.395900 7.341202 -1.870200
					CHANNELS 3 Xrotation Yrotation Zrotation
					JOINT RightArm
					{
						OFFSET -8.071453 0.936867 -2.181100
						CHANNELS 3 Xrotation Yrotation Zrotation
						JOINT RightForeArm
						{
							OFFSET -31.272011 0.000000 0.000000
							CHANNELS 3 Xrotation Yrotation Zrotation
							JOINT RightHand
							{
								OFFSET -31.771019 0.000000 0.000000
								CHANNELS 3 Xrotation Yrotation Zrotation
								JOINT RightHandThumb1
								{
									OFFSET -2.886520 -2.557808 4.416626
									CHANNELS 3 Xrotation Yrotation Zrotation
									JOINT RightHandThumb2
									{
										OFFSET -2.371056 -1.368927 1.368928
										CHANNELS 3 Xrotation Yrotation Zrotation
										JOINT RightHandThumb3
										{
											OFFSET -2.243362 -1.295204 1.295206
											CHANNELS 3 Xrotation Yrotation Zrotation
											End Site
											{
												OFFSET 0.332642 2.876938 0.020047
											}
										}
									}
								}
								JOINT RightHandIndex1
								{
									OFFSET -8.568993 -0.641953 3.120017
									CHANNELS 3 Xrotation Yrotation Zrotation
									JOINT RightHandIndex2
									{
										OFFSET -3.348518 0.000000 0.000000
										CHANNELS 3 Xrotation Yrotation Zrotation
										JOINT RightHandIndex3
										{
											OFFSET -3.314552 0.000000 0.000000
											CHANNELS 3 Xrotation Yrotation Zrotation
											End Site
											{
												OFFSET 1.032898 3.075478 0.678804
											}
										}
									}
								}
								JOINT RightHandMiddle1
								{
									OFFSET -8.124588 0.000000 0.000000
									CHANNELS 3 Xrotation Yrotation Zrotation
									JOINT RightHandMiddle2
									{
										OFFSET -4.166275 0.000000 0.000000
										CHANNELS 3 Xrotation Yrotation Zrotation
										JOINT RightHandMiddle3
										{
											OFFSET -3.018097 0.000000 0.000000
											CHANNELS 3 Xrotation Yrotation Zrotation
											End Site
											{
												OFFSET 1.032700 2.767937 0.617197
											}
										}
									}
								}
								JOINT RightHandRing1
								{
									OFFSET -8.571747 -0.031349 -2.884061
									CHANNELS 3 Xrotation Yrotation Zrotation
									JOINT RightHandRing2
									{
										OFFSET -3.671204 0.000000 0.000000
										CHANNELS 3 Xrotation Yrotation Zrotation
										JOINT RightHandRing3
										{
											OFFSET -2.728874 0.000000 0.000000
											CHANNELS 3 Xrotation Yrotation Zrotation
											End Site
											{
												OFFSET 0.815804 2.539261 0.577413
											}
										}
									}
								}
								JOINT RightHandPinky1
								{
									OFFSET -7.854561 -0.675247 -5.212970
									CHANNELS 3 Xrotation Yrotation Zrotation
									JOINT RightHandPinky2
									{
										OFFSET -3.068550 0.000000 0.000000
										CHANNELS 3 Xrotation Yrotation Zrotation
										JOINT RightHandPinky3
										{
											OFFSET -2.395981 0.000000 0.000000
											CHANNELS 3 Xrotation Yrotation Zrotation
											End Site
											{
												OFFSET 0.524605 2.267952 0.567413
											}
										}
									}
								}
							}
							JOINT RightSleeve
							{
								OFFSET -19.684753 -0.200165 0.476065
								CHANNELS 3 Xrotation Yrotation Zrotation
								End Site
								{
									OFFSET 0.031342 25.731255 -0.002917
								}
							}
						}
					}
				}
				JOINT Hood
				{
					OFFSET 0.369700 14.447800 -5.317800
					CHANNELS 3 Xrotation Yrotation Zrotation
					JOINT Hood1
					{
						OFFSET 0.001700 -5.553802 -5.895100
						CHANNELS 3 Xrotation Yrotation Zrotation
						JOINT Hood2
						{
							OFFSET -0.000200 -8.380501 0.763600
							CHANNELS 3 Xrotation Yrotation Zrotation
							End Site
							{
								OFFSET 0.000000 8.415215 0.000000
							}
						}
					}
				}
				JOINT Left_Breast
				{
					OFFSET 5.682500 3.120102 3.188800
					CHANNELS 3 Xrotation Yrotation Zrotation
					End Site
					{
						OFFSET 0.000000 10.528564 0.000000
					}
				}
				JOINT Right_Breast
				{
					OFFSET -4.947600 3.120102 3.185900
					CHANNELS 3 Xrotation Yrotation Zrotation
					End Site
					{
						OFFSET 0.000000 10.528564 0.000000
					}
				}
				JOINT Whistle
				{
					OFFSET 0.368200 11.471298 0.095400
					CHANNELS 3 Xrotation Yrotation Zrotation
					JOINT Whistle1
					{
						OFFSET -0.002000 -6.349899 7.479800
						CHANNELS 3 Xrotation Yrotation Zrotation
						JOINT Whistle2
						{
							OFFSET -0.001300 -8.217598 4.717600
							CHANNELS 3 Xrotation Yrotation Zrotation
							End Site
							{
								OFFSET 0.000000 9.475479 0.000000
							}
						}
					}
				}
			}
		}
		JOINT Belly
		{
			OFFSET 0.212400 1.593002 3.163700
			CHANNELS 3 Xrotation Yrotation Zrotation
			End Site
			{
				OFFSET 0.000000 7.496635 0.000000
			}
		}
	}
	JOINT FitGrandmaFacialAnim_Joint
	{
		OFFSET 1.150000 -86.211197 -1.220100
		CHANNELS 3 Xrotation Yrotation Zrotation
		End Site
		{
			OFFSET 0.000000 31.666618 0.000000
		}
	}
}
MOTION
Frames: 4
Frame Time: 0.016667
-4.045374 78.253723 6.649868 -7.689010 22.941422 7.627443 -0.000000 0.000002 0.000000 -17.303646 -12.982334 7.062004 43.977382 -1.055004 0.283797 -22.179018 -4.912929 -16.254225 0.000000 0.000000 0.000000 0.000001 0.000001 0.000001 -0.000002 -0.000000 -0.000001 -10.380159 -30.160568 -23.477177 52.946858 0.921547 -0.299325 -39.314801 -5.419208 9.901004 0.000000 0.000000 0.000000 -0.000002 -0.000000 0.000001 0.000001 -0.000000 -0.000001 19.080299 1.199739 1.445043 5.234403 1.638214 -0.510233 5.225527 1.690292 -0.516647 -17.295333 -9.726850 -7.669277 -20.599082 -12.220329 0.353306 -0.000001 0.000000 -0.000000 -0.000001 0.000000 -0.000000 -0.000001 0.000000 -0.000000 -0.000001 0.000000 -0.000000 -0.000001 0.000000 -0.000000 -0.000001 0.000000 -0.000000 -0.000001 0.000000 -0.000000 -0.000001 0.000000 -0.000000 -0.000001 0.000000 -0.000000 -0.000001 0.000000 -0.000000 -0.000001 0.000000 -0.000000 -0.000001 0.000000 -0.000000 -0.000001 0.000000 -0.000000 -0.000001 0.000000 -0.000000 -0.000001 0.000000 -0.000000 -0.000001 0.000000 -0.000000 -0.000001 0.000000 -0.000000 -0.000001 0.000000 -0.000000 -0.000001 0.000000 -0.000000 -0.697439 -12.691482 -24.679627 -13.018061 -5.162528 -28.488924 51.978737 -46.839665 7.482868 4.023820 -22.781652 14.370742 11.432791 11.898653 2.278028 0.907263 24.171850 -3.294997 -0.000004 0.000004 0.000001 -4.825743 9.288196 -23.825218 3.434084 9.250148 -40.028399 0.000003 0.000000 0.000001 -11.628069 16.087787 -27.374737 11.222080 9.790844 -61.810371 -0.000002 -0.000001 -0.000002 -8.924445 18.188777 -48.130755 11.602478 5.110951 -60.456381 0.000003 0.000001 -0.000005 -5.365014 8.158727 -54.955740 9.871727 -13.977196 -74.788427 -0.000002 -0.000000 0.000000 -0.000001 -0.000001 -0.000001 6.242228 -2.614789 -11.084392 -35.911390 -11.573016 -6.604742 -129.166117 14.300487 149.579340 18.373685 2.814413 -8.754311 -10.063577 -12.114438 -5.432852 -8.224836 -5.483054 5.365296 -0.000000 -0.000002 -0.000002 4.411649 -5.661957 62.206289 9.270950 -12.376278 79.811730 -0.000001 -0.000000 0.000001 -5.517170 -19.375239 62.311461 15.444364 -10.143921 85.739973 0.000004 0.000002 -0.000003 -7.692925 -21.406004 73.131232 13.187945 -6.413946 74.081891 0.000001 -0.000000 -0.000003 -6.411590 -22.996154 83.381645 9.054124 13.497793 82.144780 -0.000004 -0.000001 -0.000002 0.000002 -0.000000 -0.000000 0.000001 -0.000001 -0.000000 0.000001 -0.000001 -0.000000 0.000001 -0.000001 -0.000000 0.000001 -0.000001 -0.000000 0.000001 -0.000001 -0.000000 0.000001 -0.000001 -0.000000 0.000001 -0.000001 -0.000000 0.000001 -0.000001 -0.000000 -0.000001 -0.000000 -0.000000 -0.000000 0.000002 0.000000 
-4.183653 78.341415 7.059178 -7.919048 24.626896 7.620346 0.000000 -0.000002 -0.000000 -17.098257 -14.763433 7.031710 43.449886 -1.060098 0.279611 -21.981509 -4.869661 -16.605276 0.000000 0.000000 -0.000000 -0.000000 0.000000 0.000001 -0.000001 0.000000 0.000000 -8.950021 -31.980435 -22.752356 51.798304 0.904370 -0.285867 -39.450131 -5.822901 9.854959 0.000000 0.000000 -0.000000 -0.000003 -0.000000 0.000001 0.000001 -0.000000 0.000001 18.996269 1.091514 1.454035 5.096429 1.511989 -0.476951 5.088403 1.550687 -0.475985 -18.172862 -7.374420 -11.412608 -20.891290 -12.073571 1.777839 -0.000002 0.000001 -0.000000 -0.000002 0.000001 -0.000000 -0.000002 0.000001 -0.000000 -0.000002 0.000001 -0.000000 -0.000002 0.000001 -0.000000 -0.000002 0.000001 -0.000000 -0.000002 0.000001 -0.000000 -0.000002 0.000001 -0.000000 -0.000002 0.000001 -0.000000 -0.000002 0.000001 -0.000000 -0.000002 0.000001 -0.000000 -0.000002 0.000001 -0.000000 -0.000002 0.000001 -0.000000 -0.000002 0.000001 -0.000000 -0.000002 0.000001 -0.000000 -0.000002 0.000001 -0.000000 -0.000002 0.000001 -0.000000 -0.000002 0.000001 -0.000000 -0.000002 0.000001 -0.000000 -0.787867 -12.075480 -26.714946 -11.942304 -3.432192 -26.261543 55.390860 -49.285197 10.889092 5.145024 -22.468988 14.527706 11.432783 11.898669 2.278039 1.501908 25.466700 -3.312476 -0.000002 0.000001 -0.000002 -3.794585 7.957269 -23.971109 4.254776 10.064904 -46.827695 0.000004 0.000000 -0.000003 -11.756387 14.887290 -29.374205 11.904638 9.966812 -65.739615 -0.000000 -0.000000 -0.000003 -9.476061 18.032230 -49.017778 11.714559 5.347377 -61.842876 0.000002 -0.000000 -0.000002 -6.800936 9.633148 -56.189016 9.701506 -13.949396 -75.709389 -0.000003 -0.000003 0.000001 0.000003 -0.000001 -0.000001 7.717158 -7.373781 -5.050556 -43.972147 -21.360513 -11.904038 -118.831331 10.484287 148.086479 21.961609 11.633984 -14.248329 -10.063576 -12.114473 -5.432875 -8.226147 -5.485128 5.369689 0.000002 -0.000000 -0.000002 2.105019 -3.843899 56.888642 9.938198 -12.409307 83.561183 0.000002 -0.000001 0.000001 -5.678346 -19.240243 61.807304 15.499924 -10.129643 85.942631 -0.000001 0.000002 -0.000001 -7.133073 -21.873423 74.675565 13.186732 -6.412989 74.080006 0.000002 -0.000001 -0.000001 -5.396331 -23.712767 86.009102 9.042686 13.516174 81.894740 -0.000001 -0.000001 0.000003 0.000003 0.000002 0.000001 0.000001 0.000000 -0.000000 0.000001 0.000000 -0.000000 0.000001 0.000000 -0.000000 0.000001 0.000000 -0.000000 0.000001 0.000000 -0.000000 0.000001 0.000000 -0.000000 -0.000002 -0.000001 -0.000000 -0.000002 -0.000001 -0.000000 -0.000001 -0.000001 0.000000 0.000000 -0.000002 -0.000000 
-4.268342 78.442505 7.503147 -8.065402 26.725673 7.948867 0.000000 0.000001 -0.000000 -17.070145 -16.828164 6.480501 42.594197 -1.055639 0.272959 -21.548615 -4.788046 -16.897582 0.000000 0.000000 0.000000 -0.000000 0.000001 0.000000 -0.000002 0.000001 -0.000000 -7.750497 -34.027360 -22.454648 50.613601 0.917964 -0.271402 -39.600713 -6.364558 9.908083 0.000000 -0.000000 0.000000 -0.000004 -0.000001 0.000000 -0.000001 -0.000000 -0.000001 19.003038 0.692693 1.550205 5.119968 0.756769 -0.529775 5.119970 0.792230 -0.531183 -18.019887 -6.128818 -11.431361 -23.168534 -10.769680 0.960113 -0.000001 -0.000000 -0.000000 -0.000001 -0.000000 -0.000000 -0.000001 -0.000000 -0.000000 -0.000001 -0.000000 -0.000000 -0.000001 -0.000000 -0.000000 -0.000001 -0.000000 -0.000000 -0.000001 -0.000000 -0.000000 -0.000001 -0.000000 -0.000000 -0.000001 -0.000000 -0.000000 -0.000001 -0.000000 -0.000000 -0.000001 -0.000000 -0.000000 -0.000001 -0.000000 -0.000000 -0.000001 -0.000000 -0.000000 -0.000001 -0.000000 -0.000000 -0.000001 -0.000000 -0.000000 -0.000001 -0.000000 -0.000000 -0.000001 -0.000000 -0.000000 -0.000001 -0.000000 -0.000000 -0.000001 -0.000000 -0.000000 -0.786549 -12.473175 -26.068153 -9.832091 0.874619 -25.954338 55.683735 -52.355753 13.970397 5.154068 -22.384084 15.753924 11.432790 11.898644 2.278006 2.008793 26.268633 -3.133967 -0.000000 0.000001 0.000004 -2.251144 6.806015 -25.190458 5.503155 11.025381 -56.130307 -0.000002 0.000000 0.000006 -11.459819 14.203325 -33.122630 12.927612 10.135811 -71.691919 0.000001 0.000002 0.000003 -10.290459 17.678201 -51.680995 12.170185 5.710953 -65.667590 -0.000000 0.000000 0.000000 -9.073674 11.365279 -57.531544 9.481989 -13.836168 -77.686729 0.000001 -0.000002 -0.000001 0.000002 0.000001 -0.000004 8.148598 -9.861663 -1.653016 -54.292416 -30.007815 -14.466132 -110.199911 8.391166 146.424803 18.072097 15.336309 -13.285896 -10.063565 -12.114468 -5.432855 -8.227457 -5.487211 5.374029 0.000001 0.000001 0.000000 1.196536 -3.158856 56.657290 10.312586 -12.414117 85.657703 0.000000 -0.000001 0.000001 -5.742784 -19.186635 61.604010 15.602915 -10.102558 86.317458 0.000001 0.000002 0.000001 -6.814867 -22.127527 75.537698 13.249230 -6.405619 74.350598 0.000001 -0.000001 0.000001 -4.320079 -24.385652 88.689849 9.030324 13.536150 81.623015 -0.000003 0.000002 0.000002 -0.000002 -0.000000 -0.000000 -0.000001 -0.000001 -0.000000 -0.000001 -0.000001 -0.000000 -0.000001 -0.000001 -0.000000 -0.000001 -0.000001 -0.000000 -0.000001 -0.000001 -0.000000 -0.000002 -0.000001 -0.000000 -0.000002 -0.000002 0.000001 -0.000002 -0.000002 0.000001 -0.000000 -0.000000 0.000000 0.000000 0.000001 -0.000000 
-4.342288 78.556335 7.881079 -8.014687 28.591993 8.210232 0.000000 0.000001 0.000000 -17.177873 -18.669275 5.953516 41.627640 -1.072209 0.265004 -21.024992 -4.643283 -17.146321 -0.000000 0.000000 -0.000000 0.000001 0.000002 -0.000001 -0.000001 0.000001 -0.000001 -6.882183 -35.798333 -22.159902 49.496376 0.920369 -0.258487 -39.641578 -6.853989 9.940465 0.000000 -0.000000 -0.000000 -0.000006 -0.000000 -0.000001 0.000000 0.000000 0.000000 19.015016 0.159018 1.672560 5.137561 -0.395261 -0.742506 5.145100 -0.355858 -0.748199 -17.870386 -5.140429 -11.214736 -24.990201 -9.168339 -0.055151 -0.000003 -0.000000 0.000000 -0.000003 -0.000000 0.000000 -0.000003 -0.000000 0.000000 -0.000003 -0.000000 0.000000 -0.000003 -0.000000 0.000000 -0.000003 -0.000000 0.000000 -0.000003 -0.000000 0.000000 -0.000003 -0.000000 0.000000 -0.000003 -0.000000 0.000000 -0.000003 -0.000000 0.000000 -0.000003 -0.000000 0.000000 -0.000003 -0.000000 0.000000 -0.000003 -0.000000 0.000000 -0.000003 -0.000000 0.000000 -0.000003 -0.000000 0.000000 -0.000003 -0.000000 0.000000 -0.000003 -0.000000 0.000000 -0.000003 -0.000000 0.000000 -0.000003 -0.000000 0.000000 -0.729884 -12.936521 -24.594041 -7.448410 5.738898 -26.622699 53.665865 -55.184097 15.413749 5.030931 -22.352303 16.946813 11.432767 11.898675 2.278046 2.417367 26.741166 -2.824136 0.000002 0.000005 -0.000000 -0.680616 5.686680 -26.936058 6.891996 11.728943 -65.387832 0.000002 -0.000001 0.000000 -11.129762 13.721690 -37.247504 13.953060 10.245279 -77.699330 -0.000001 -0.000005 0.000001 -11.165320 17.079417 -55.081101 12.723759 6.059007 -69.966846 0.000001 0.000002 -0.000001 -11.557529 12.642532 -58.779638 9.272187 -13.696402 -79.792681 0.000001 -0.000002 0.000002 0.000000 -0.000000 -0.000001 8.112594 -11.609553 1.893598 -67.056147 -34.147613 -17.067560 -102.494263 5.567612 145.072371 10.148211 17.432294 -8.852114 -10.063578 -12.114462 -5.432851 -8.228741 -5.489374 5.378371 0.000000 -0.000001 0.000001 0.713216 -2.871451 56.761321 10.462540 -12.409653 86.501204 -0.000001 0.000001 0.000002 -5.871341 -19.074750 61.194069 15.711435 -10.073254 86.712564 0.000000 -0.000005 -0.000003 -6.700064 -22.214828 75.840795 13.352719 -6.393772 74.797839 0.000003 0.000000 0.000001 -3.692224 -24.744724 90.215686 9.019910 13.553494 81.391232 0.000001 0.000003 0.000002 -0.000004 -0.000000 0.000001 0.000002 0.000001 0.000000 0.000002 0.000001 0.000000 0.000002 0.000001 0.000000 0.000002 0.000001 0.000000 0.000002 0.000001 0.000000 0.000002 0.000001 0.000000 0.000000 0.000000 -0.000000 0.000000 0.000000 -0.000000 0.000000 -0.000002 -0.000001 0.000000 0.000001 0.000000 
